<svg width="87" height="96" viewBox="0 0 87 96" fill="none" xmlns="http://www.w3.org/2000/svg">
<g clip-path="url(#clip0_101_40)">
<path d="M39.0346 70.3192C39.7705 69.7903 42.3244 71.277 43.2412 71.7966C43.5 71.9437 43.0821 70.6479 42.5582 70.1596C40.9866 68.698 37.8403 66.939 36.9329 66.939C35.723 66.939 34.2512 69.2613 34.9871 69.8404C35.723 70.4194 38.2987 70.8419 39.0346 70.3161V70.3192Z" fill="#15B52B"/>
<path d="M44.8939 71.7966C45.8107 71.277 48.3645 69.7903 49.1004 70.3193C49.8364 70.8482 52.4121 70.4257 53.148 69.8435C53.8839 69.2645 52.4121 66.9421 51.2022 66.9421C50.2947 66.9421 47.1484 68.698 45.5768 70.1628C45.0529 70.6511 44.6351 71.9468 44.8939 71.7997V71.7966Z" fill="#15B52B"/>
<path d="M62.0943 73.6087C59.7805 72.4131 55.0127 74.1001 55.0127 74.1001C54.0304 74.9452 56.6248 75.086 56.6248 75.086C56.6248 75.086 54.9409 80.2942 53.0481 81.8404C51.1553 83.3896 44.133 84.0407 41.0334 84.2504C37.9338 84.4601 36.9952 84.6541 36.9952 84.6541C39.1001 85.4992 49.406 85.0767 52.9109 83.881C56.4159 82.6854 59.6402 75.3646 59.6402 75.3646C59.6402 75.3646 64.408 74.8012 62.0943 73.6056V73.6087Z" fill="#15B52B"/>
<path d="M81.5617 43.4523C78.9205 41.9093 74.9322 43.6683 71.9948 45.4648C71.9418 44.6323 71.8389 43.3584 71.6424 41.8279C71.6424 41.8279 70.2766 26.842 68.9077 25.0485C67.676 23.4304 60.5538 22.36 58.6922 22.3944C59.0789 20.8795 59.0664 18.9453 58.4926 16.3944C58.4926 16.3944 49.0287 7.77468 37.0389 7.87797C25.0491 7.98751 17.9831 -0.0187464 16.9135 3.2985e-05C15.8439 0.0188123 14.3253 3.9656 14.949 6.71991C15.9874 11.3083 18.3916 15.95 21.6502 17.4273C21.6502 17.4273 17.824 16.3255 13.3368 13.4398C12.8317 13.1143 11.8151 12.8482 11.6405 14.0971C11.4783 15.2551 9.79447 21.9187 16.6578 26.9202C14.8929 27.3365 13.209 27.6182 12.4793 27.4085C10.8703 26.9453 11.8744 30.1221 18.2481 30.6385C15.8127 36.0658 15.1673 42.8858 15.002 45.4617C12.0646 43.6651 8.0763 41.9061 5.43511 43.4492C2.92178 44.9171 -0.845102 52.7293 0.165221 59.7935C0.929199 65.133 4.82081 69.4773 7.74576 71.252C8.29769 71.5869 9.04296 71.8185 9.8849 71.9312C11.4565 72.0689 12.0459 71.9468 12.2735 71.6933C12.5386 71.3991 12.3234 70.7105 11.996 70.4789C9.05855 68.4069 6.39554 64.6761 5.49436 61.1268C4.28447 56.3694 6.6606 51.8185 7.97339 50.77C8.19167 50.5947 10.8141 50.5916 11.9991 51.9875C13.0281 53.1988 12.1145 56.5196 13.184 57.5869C14.291 58.6917 15.1797 59.2958 15.8658 59.6213C15.8533 61.1518 15.7535 65.2301 15.0051 65.6464C14.21 66.0877 12.6227 61.2551 10.3495 58.0783C10.3495 58.0783 8.73113 57.4179 9.13651 58.9421C9.52941 60.4163 12.7755 72.7481 16.3273 70.0658C16.162 73.108 16.3397 76.5259 17.4717 79.1581C20.1004 85.2802 29.159 95.9875 43.4968 95.9875C57.8347 95.9875 66.8902 85.2802 69.522 79.1581C70.6508 76.5259 70.8286 73.108 70.6664 70.0658C74.2212 72.7481 77.4674 60.4132 77.8572 58.9421C78.2625 57.4179 76.6441 58.0783 76.6441 58.0783C74.3709 61.2551 72.7837 66.0877 71.9886 65.6464C71.2433 65.2301 71.1404 61.1518 71.1279 59.6213C71.8139 59.2958 72.7026 58.6886 73.8096 57.5869C74.8792 56.5196 73.9655 53.1988 74.9915 51.9875C76.1764 50.5885 78.7989 50.5916 79.0203 50.77C80.3331 51.8185 82.7092 56.3694 81.4993 61.1268C80.5981 64.6761 77.932 68.4069 74.9946 70.4789C74.6703 70.7074 74.452 71.3991 74.717 71.6933C74.9447 71.9468 75.534 72.072 77.1057 71.9312C77.9476 71.8185 78.6929 71.5869 79.2448 71.252C82.1697 69.4742 86.0613 65.1299 86.8253 59.7935C87.8356 52.7293 84.0688 44.9171 81.5585 43.4492L81.5617 43.4523ZM22.4204 64.1816C19.5173 62.9734 19.0807 53.5963 19.5859 53.3615C23.6833 51.446 36.2624 52.2348 37.2727 53.7559C38.2831 55.277 37.0857 63.518 36.3186 64.2097C35.0089 65.3928 28.473 66.698 22.4235 64.1816H22.4204ZM26.8234 48.7762C24.5034 48.7387 22.2863 48.7888 20.3436 48.8795C19.9788 47.2301 19.7886 45.1424 20.3124 43.0329C21.4693 38.3881 32.9321 33.7434 36.5088 34.3756C40.0854 35.0079 43.4968 40.8138 43.4968 40.8138C43.4968 40.8138 46.9082 35.0079 50.4849 34.3756C54.0616 33.7434 65.5244 38.3881 66.6812 43.0329C67.2051 45.1424 67.0149 47.2301 66.6501 48.8795C64.7105 48.7888 62.4934 48.7356 60.1703 48.7762C53.4379 48.8889 47.061 49.2582 46.7211 50.1064C46.5527 50.5227 46.4374 51.0767 46.3656 51.7246C45.4863 51.4992 44.5165 51.3709 43.4968 51.3709C42.4772 51.3709 41.5074 51.4961 40.628 51.7246C40.5532 51.0767 40.4378 50.5227 40.2725 50.1064C39.9326 49.2582 33.5558 48.8889 26.8234 48.7762V48.7762ZM49.7272 53.7559C50.7375 52.2348 63.3135 51.446 67.4109 53.3615C67.9161 53.5963 67.4764 62.9734 64.5764 64.1816C58.5269 66.698 51.991 65.3928 50.6813 64.2097C49.9143 63.518 48.7168 55.277 49.7272 53.7559ZM64.9038 79.1424C62.3905 84.77 53.9275 92.1471 43.4968 92.1471C33.0662 92.1471 24.8183 81.8967 24.7653 78.2567C24.7154 74.7043 28.2079 69.6933 30.0851 67.2582C33.983 67.1518 37.569 66.554 38.5824 65.8216C39.3027 65.2989 40.2258 60.9797 40.5781 56.8795C41.47 56.7856 42.4553 56.6917 43.4937 56.6917C44.5321 56.6917 45.5175 56.7825 46.4093 56.8795C46.7617 60.9766 47.6878 65.2989 48.405 65.8216C49.9641 66.9484 57.6039 67.7528 63.0983 66.9484C63.5973 67.3177 63.9777 67.7935 64.1617 68.4038C64.5359 69.6401 66.279 76.047 64.8976 79.1424H64.9038Z" fill="#15B52B"/>
</g>
<defs>
<clipPath id="clip0_101_40">
<rect width="87" height="96" fill="white"/>
</clipPath>
</defs>
</svg>
